<?xml version="1.0" encoding="utf-8"?>
<!-- Generator: Adobe Illustrator 27.8.1, SVG Export Plug-In . SVG Version: 6.00 Build 0)  -->
<svg version="1.1" id="Layer_1" xmlns="http://www.w3.org/2000/svg" xmlns:xlink="http://www.w3.org/1999/xlink" x="0px" y="0px"
	 viewBox="0 0 360 640" style="enable-background:new 0 0 360 640;" xml:space="preserve">
<style type="text/css">
	.st0{fill:url(#SVGID_1_);}
	.st1{fill:#51887D;}
	.st2{fill:#669966;}
	.st3{fill:#339999;}
	.st4{fill:#006633;}
	.st5{fill:#003333;}
	.st6{fill:#003300;}
	.st7{fill:#336C6C;}
	.st8{opacity:0.1;fill:#99FF00;enable-background:new    ;}
</style>
<g>
	<g id="Layer_2_00000022547490006587237880000002903804408360509869_">
		<linearGradient id="SVGID_1_" gradientUnits="userSpaceOnUse" x1="180" y1="645.5" x2="180" y2="-5.5">
			<stop  offset="0" style="stop-color:#005540"/>
			<stop  offset="0.7052" style="stop-color:#7BB292"/>
			<stop  offset="1" style="stop-color:#00CCE9"/>
		</linearGradient>
		<rect x="-6" y="-5.5" class="st0" width="372" height="651"/>
	</g>
	<path class="st1" d="M-25.5,199.7c0,0,233.4-29.5,258.9,204.5C233.4,404.2-6.8,515.2-25.5,199.7z"/>
	<path class="st2" d="M-25.5,192.1c0,0,134.8-171,302-39C276.5,153.1,190.5,326.1-25.5,192.1z"/>
	<path class="st2" d="M354-56c0,0-199,500-125,773C229,717,197,341,354-56z"/>
	<path class="st2" d="M-72.1,616.8c0,0,353.2,51.8,449.2-151.6c0,0-33.6,188.5-447.1,161.8L-72.1,616.8z"/>
	<polygon class="st3" points="451.5,608 440.3,613 218.3,-43 221.5,-48 	"/>
	<path class="st2" d="M244.5,310.1c0,0,23.7-274.1-290.9-366.1c0,0,287.8,53.5,295.7,344.4L244.5,310.1z"/>
	<path class="st4" d="M132,659c0,0,48-406-169-560c0,0,206.7,109,181,563L132,659z"/>
	<path class="st3" d="M14.1,181.7c14,1.5,22.8-6,28.1-14.7c5.5-8.9,7.8-20.4,7.2-32.6C47.9,106.3,52,26.1,148.2,29.2
		c116.6,3.7,97.6,5.5,97.6,5.5s-102.2,42-125.7,130S14.1,181.7,14.1,181.7z"/>
	<polygon class="st5" points="20,655 -15,655 -15,-11 44,-11 	"/>
	<polygon class="st6" points="14.2,143 8.6,662 20,655 44,-11 	"/>
	<path class="st6" d="M147.9,41C97,70.4,36.2,60.1,35.8,59.5C35.5,58.9,57,1,107.8-28.3S236.9,2.3,237,3
		C237.1,3.8,198.7,11.7,147.9,41z"/>
	<path class="st3" d="M36,477.1c15.8,8.4,30.1,4.6,41-2.2c11.2-6.9,20.1-18.1,25.8-31.5c13.2-30.9,60.5-114.7,172.4-65.1
		c135.6,60.1,112.3,53,112.3,53S244.6,427,170.2,510S36,477.1,36,477.1z"/>
	
		<ellipse transform="matrix(0.8054 -0.5927 0.5927 0.8054 47.6032 204.0148)" class="st2" cx="334.5" cy="29.5" rx="51.9" ry="103.6"/>
	<path class="st6" d="M358.9,585.8c23,23,23.6,59.8,23.3,60.1S330,651,307,628s-35.3-106.4-33-103C292,552,335.8,562.8,358.9,585.8z
		"/>
	<path class="st4" d="M144.1,599.9c0,0,7.2-72,57.6-60S240,517,240,517S282.3,599.7,144.1,599.9z"/>
	
		<ellipse transform="matrix(0.4009 -0.9161 0.9161 0.4009 -458.149 524.5505)" class="st4" cx="172" cy="612.6" rx="9.6" ry="31.6"/>
	<path class="st2" d="M131.8,617.6c0,0-13.1-3.5-16-27.2s-12-31.8-12-31.8s9.3,22.5-3.6,37.8S131.8,617.6,131.8,617.6z"/>
	<ellipse transform="matrix(0.9923 -0.1235 0.1235 0.9923 -73.5027 20.4245)" class="st2" cx="128" cy="603.1" rx="5.4" ry="17.9"/>
	<path class="st6" d="M14.5,139.8c0,0,44.5-95.4,129.9-75.2C144.4,64.6,90.1,169.6,14.5,139.8z"/>
	<path class="st6" d="M118,501.1c0,0-23.3,137.5-157.7,172.1C-39.8,673.2-95.7,542,118,501.1z"/>
	<path class="st4" d="M370.9,545c6,31.4-12.5,66-12.9,66.1s-43.3-17.6-49.3-49.1c-6-31.4,27.5-114.6,27.5-110.4
		C336.3,484.6,364.9,513.5,370.9,545z"/>
	<path class="st7" d="M375.8,108.2c0,0-25.4-38.5-82.8-10.1C293.1,98.1,327.8,136.3,375.8,108.2z"/>
	<path class="st1" d="M373.2,103.4c0,0,11.2-60.6-70.3-86.3C302.9,17.2,301,86.1,373.2,103.4z"/>
	<path class="st7" d="M408.4,229.6c0,0-113.9-19.9-134.7,91.1C273.7,320.8,398.8,361.4,408.4,229.6z"/>
	<path class="st1" d="M325.2,154c0,0,2.6,26.4,22.4,26.4s42.5,1.1,44.8,37.4s-52.5,22.8-52.5,22.8S296.6,205.7,325.2,154z"/>
	<path class="st4" d="M118,370.8c0,0-67-160.8-269-127.8c0,0,179.3-34.6,271.2,138.7L118,370.8z"/>
	<path class="st2" d="M258.4,282.5c0,0,70.6-174.5,155.6-148.5c0,0-69.7-28.1-158.3,163.9L258.4,282.5z"/>
	<rect x="-21" y="-11" class="st8" width="394.7" height="657.5"/>
</g>
</svg>
