<?xml version="1.0" encoding="utf-8"?>
<!-- Generator: Adobe Illustrator 27.8.1, SVG Export Plug-In . SVG Version: 6.00 Build 0)  -->
<svg version="1.1" id="Layer_1" xmlns="http://www.w3.org/2000/svg" xmlns:xlink="http://www.w3.org/1999/xlink" x="0px" y="0px"
	 viewBox="0 0 1000 1000" style="enable-background:new 0 0 1000 1000;" xml:space="preserve">
<style type="text/css">
	.st0{fill:#FFCC99;}
	.st1{fill:#FFCC66;}
	.st2{opacity:0.3;fill:url(#SVGID_1_);enable-background:new    ;}
	.st3{fill:#FFFFFF;}
	.st4{opacity:0.3;fill:#666666;enable-background:new    ;}
	.st5{fill:#CCCCCC;}
	.st6{fill:#999999;}
	.st7{fill:url(#SVGID_00000009565636396782126050000001404362324548549037_);}
	.st8{opacity:0.6;fill:#FF99CC;enable-background:new    ;}
	.st9{fill:#FF66CC;}
	.st10{fill:#FF9966;}
	.st11{fill:#FF99CC;}
	.st12{fill:#CC3366;}
	.st13{opacity:0.4;fill:#CCCCCC;enable-background:new    ;}
	.st14{opacity:0.3;fill:#FF00CC;enable-background:new    ;}
</style>
<g>
	<path class="st0" d="M442.6,230.2c0,0,1.7-81.5,79.7-114s147.8,1,147.8,1s96.3,49.6,78.1,200.7s-96.3,278.5-96.3,278.5
		s-64.8,137-209.3,190.8S333,904.2,333,904.2s-92.2-56.5,82.6-217.6s244-418,221-424.7l-117-56.2L442.6,230.2z"/>
	<path class="st1" d="M442.6,230.2c0,0,254.5-150-33.3-87.8c-211.1,45.6-73.1,231.3-9.8,360.8c33.3,68.1,4.1,167.6,70,205.1
		c32,18.2,101.3,52.8,133.6,52c0,0-160.4-162.3-91.3-339.7S442.6,230.2,442.6,230.2z"/>
	
		<radialGradient id="SVGID_1_" cx="523.8568" cy="496.8727" r="325.8857" gradientTransform="matrix(1 0 0 -1 0 1000)" gradientUnits="userSpaceOnUse">
		<stop  offset="0" style="stop-color:#000000"/>
		<stop  offset="0.1207" style="stop-color:#3A002E"/>
		<stop  offset="0.2449" style="stop-color:#6D0058"/>
		<stop  offset="0.3714" style="stop-color:#9A007B"/>
		<stop  offset="0.4977" style="stop-color:#BF0098"/>
		<stop  offset="0.6238" style="stop-color:#DB00AF"/>
		<stop  offset="0.7495" style="stop-color:#EF00BF"/>
		<stop  offset="0.875" style="stop-color:#FB00C9"/>
		<stop  offset="1" style="stop-color:#FF00CC"/>
	</radialGradient>
	<path class="st2" d="M670.5,117.2c0,0-69.8-33.4-147.8-1c-8.1,3.4-15.3,7.2-21.8,11.5c-21.2,1.4-50.9,5.9-91.2,14.6
		c-211.1,45.6-73.1,231.3-9.8,360.8c24.7,50.5,15.1,118.2,35.2,165.1c-6.2,6.3-12.6,12.4-19.1,18.4
		c-174.8,161.1-82.6,217.6-82.6,217.6s-34.9-63.1,109.6-117c33.6-12.5,62.9-29.5,88.1-48.3c27.2,12,55.2,21.7,72.5,21.3
		c0,0-18-18.2-39.3-49c60.1-55.8,88-114.8,88-114.8s78.1-127.4,96.3-278.5S670.5,117.2,670.5,117.2z M504.8,586.1
		c-13.2-50-15.4-106.9,7.4-165.5c69.1-177.4-69.3-190.4-69.3-190.4l77-24.5l117,56.2C655.5,267.4,613.8,436.4,504.8,586.1z"/>
	<path class="st3" d="M565.7,587.4c-0.1-20.3-2.8-37.1-7.4-53.9c-2.5-9.5-5.7-18.2-9.5-26.3c9,4.1,18.9,12.2,28,23
		c4.4,5.2,8.7,11.1,12.7,17.5c9.1,14.9,14.4,29.7,15.6,41.5l20.2,13.9c11.4,4.9,27.9,10.8,22.1,20.4c-5.8,9.6-24.2,1.1-29.7-8.6
		L565.7,587.4z"/>
	<path class="st4" d="M517.4,705.7c0,0-60.9,0.9-52.4-16.8s74.2-14.5,74.2-14.5S534.3,706.2,517.4,705.7z"/>
	<path class="st5" d="M481.5,510.1c-9.9-4.6-27.8-3.8-46.5,3c-3.3,1.2-6.5,2.5-9.5,4c14.4,10.6,30.5,19.2,47.7,25.2
		C475.1,530.5,478,519.7,481.5,510.1z"/>
	<path class="st5" d="M474.2,542.7c11.3-8.4,17.3-17.9,14.6-25.3c-1.1-3.1-3.7-5.5-7.3-7.2c-3.5,9.5-6.3,20.4-8.3,32.2
		C473.5,542.4,473.9,542.6,474.2,542.7z"/>
	<path class="st6" d="M569,589.2c0,0-6.8-55.2,23.1-36.9c0,0-13.6-29.8-43.4-45S569,589.2,569,589.2z"/>
	<path class="st5" d="M522.7,747.1l10,26.8c2.8-6,4.9-12.8,6.5-17.2l10.5-21.5L539,674.5L522.7,747.1z"/>
	<polygon class="st5" points="566.6,621.1 531.5,632.2 523.8,661 531.9,668.8 569.4,650.7 	"/>
	<path class="st5" d="M477.3,643.1l28.9-25l15.6,51.2V697C521.8,697,495.4,705.7,477.3,643.1z"/>
	<path class="st5" d="M472,549.8c0,0-1.3,55.8,12.3,87.2l-7.1,6.2C477.3,643.1,464.2,601.6,472,549.8z"/>
	<path class="st3" d="M522,750.2c-4,10.7-17.2,32.1-5.2,36.5c7,2.6,12.1-4.4,16-12.9l-10-26.8L522,750.2z"/>
	
		<linearGradient id="SVGID_00000135653288557264652760000009917823661528668588_" gradientUnits="userSpaceOnUse" x1="565.8646" y1="264.9" x2="565.8646" y2="378.9513" gradientTransform="matrix(1 0 0 -1 0 1000)">
		<stop  offset="0" style="stop-color:#CCCCCC"/>
		<stop  offset="0.2014" style="stop-color:#E2E2E2"/>
		<stop  offset="0.4237" style="stop-color:#F2F2F2"/>
		<stop  offset="0.6726" style="stop-color:#FCFCFC"/>
		<stop  offset="1" style="stop-color:#FFFFFF"/>
	</linearGradient>
	<path style="fill:url(#SVGID_00000135653288557264652760000009917823661528668588_);" d="M577,622.6c-11.9-4.4-24.9,0.9-28.8,11.6
		l-9.1,40.2l10.7,60.7l41.6-85C595.5,639.4,589,627.1,577,622.6z"/>
	<path class="st5" d="M519.6,469.4c-15.3,0-29,15.8-38.2,40.8c3.6,1.7,6.2,4.1,7.3,7.2c2.7,7.4-3.3,16.9-14.6,25.3
		c18.6,6.4,38.5,9.9,59.3,9.9c11.5,0,22.8-1.1,33.7-3.1C560.9,503.1,542,469.4,519.6,469.4z"/>
	<path class="st3" d="M568.4,829.8L568.4,829.8c-12.5,2.7-15.5-28.5-19.1-42.5l-52.9-141.2c-3.7-14,3.4-27.7,15.8-30.4l0,0
		c12.5-2.7,25.6,6.6,29.2,20.6l25.9,147.1C571,797.4,580.9,827.1,568.4,829.8z"/>
	<path class="st3" d="M528.2,157.9c-72.7,0-135.4,42.5-164.7,104l43.5,23.8l0,0c1.6,0.9,3.2,1.9,4.7,3.1
		c16.1,12.4,19.1,35.4,6.8,51.5c-4.2,5.4-9.5,9.3-15.4,11.7c-5,2.8-10.5,3.9-15.9,3.8c7.4,8.9,10.3,18.5,6.4,25.6
		c-5.6,10.4-23.7,11.9-42.1,4c20.1,78.9,91.6,137.2,176.7,137.2c100.7,0,182.4-81.7,182.4-182.4S628.9,157.9,528.2,157.9z"/>
	<path class="st3" d="M393.5,381.5c3.8-7.1,1-16.7-6.4-25.6c-16.7-0.1-33.7-10.5-41.3-15.7c0,0.1,0,0.2,0,0.2
		c0,15.6,2,30.7,5.6,45.2C369.8,393.3,387.9,391.9,393.5,381.5z"/>
	
		<ellipse transform="matrix(9.904226e-03 -1 1 9.904226e-03 138.2776 945.5676)" class="st8" cx="546.6" cy="403" rx="23.8" ry="41.8"/>
	<path class="st8" d="M393.5,381.5c3.8-7.1,1-16.7-6.4-25.6c-16.7-0.1-33.7-10.5-41.3-15.7c0,0.1,0,0.2,0,0.2
		c0,15.6,2,30.7,5.6,45.2C369.8,393.3,387.9,391.9,393.5,381.5z"/>
	<path class="st9" d="M357.3,336c-7-12.4-6.4-28.4,2.9-40.4c11.2-14.5,31.1-18.5,46.8-9.8l0,0L363.5,262
		c-10.4,21.7-16.5,45.9-17.5,71.3C349.6,333.7,353.4,334.7,357.3,336z"/>
	<path class="st10" d="M385.9,354.5c0.4,0.4,0.8,0.9,1.2,1.3c5.5,0,10.9-1.1,15.9-3.8C397.6,354.2,391.7,355,385.9,354.5z"/>
	<path class="st9" d="M366.9,347.1c-4-3.1-7.3-6.9-9.6-11.1c-3.9-1.3-7.7-2.3-11.4-2.7c-0.1,2.3-0.1,4.6-0.1,6.8
		c7.6,5.3,24.6,15.7,41.3,15.7c-0.4-0.4-0.8-0.9-1.2-1.3C379.2,353.9,372.6,351.5,366.9,347.1z"/>
	<path class="st1" d="M415.1,337.8c-0.7,0.9-1.4,1.7-2.1,2.5c-1.9,4.9-5.1,9-10,11.7l0,0c5.9-2.4,11.3-6.3,15.4-11.7
		c12.4-16.1,9.3-39.1-6.8-51.5c-1.5-1.2-3.1-2.2-4.7-3.1c0,0,1,2.5,2.4,6.5C423.4,303.2,426.1,323.6,415.1,337.8z"/>
	<path class="st1" d="M413,340.3c-8.4,8.9-21,12.2-32.4,9.1c1.9,1.7,3.7,3.4,5.3,5.2c5.8,0.5,11.7-0.3,17.1-2.5l0,0
		C407.9,349.3,411.1,345.2,413,340.3z"/>
	<path class="st1" d="M360.2,295.6c-9.2,12-9.9,28-2.9,40.4c2.3,0.8,4.6,1.7,7,2.8c-9.6-11.5-10.3-28.4-0.8-40.7
		c11-14.2,31.3-17,45.7-6c0.1,0,0.1,0.1,0.2,0.1c-1.3-4-2.4-6.5-2.4-6.5C391.3,277.1,371.4,281,360.2,295.6z"/>
	<path class="st1" d="M366.9,347.1c5.7,4.4,12.3,6.8,19,7.4c-1.6-1.8-3.3-3.5-5.3-5.2c-3.9-1.1-7.7-2.9-11.2-5.6
		c-1.9-1.5-3.6-3.2-5.2-5c-2.3-1.1-4.7-2-7-2.8C359.7,340.2,362.9,344,366.9,347.1z"/>
	<path d="M413,340.3c0.7-0.8,1.4-1.6,2.1-2.5c10.9-14.2,8.3-34.6-5.8-45.5C413,303.1,418.9,325.3,413,340.3z"/>
	<path d="M380.6,349.4c11.4,3.1,24-0.1,32.4-9.1c5.9-15-0.1-37.1-3.7-48c-0.1,0-0.1-0.1-0.2-0.1c-14.3-11-34.7-8.3-45.7,6
		c-9.5,12.3-8.7,29.3,0.8,40.7c1.2,0.6,2.5,1.2,3.7,1.9C372.8,343.2,377,346.2,380.6,349.4z M387.2,294.4c1.7-3.2,5.7-4.3,8.9-2.6
		c3.2,1.7,4.3,5.7,2.6,8.9c-1.7,3.2-5.7,4.3-8.9,2.6C386.6,301.5,385.5,297.5,387.2,294.4z"/>
	<path d="M369.5,343.8c3.4,2.6,7.2,4.5,11.2,5.6c-3.6-3.2-7.9-6.1-12.6-8.7c-1.2-0.7-2.5-1.3-3.7-1.9
		C365.8,340.6,367.5,342.3,369.5,343.8z"/>
	<path class="st3" d="M389.8,303.2c3.2,1.7,7.1,0.6,8.9-2.6c1.7-3.2,0.6-7.1-2.6-8.9c-3.2-1.7-7.2-0.6-8.9,2.6
		C385.5,297.5,386.6,301.5,389.8,303.2z"/>
	<path class="st9" d="M612.4,296.2l-89.2,14.2c0,0-38,41.9-18.6,63.7c17.3,19.5,53.5,9.5,61.3,7c0.8-0.2,1.5-0.5,2.3-0.7
		C573.9,378.8,607.9,366.2,612.4,296.2z"/>
	<path class="st1" d="M563.9,335.4c6.2,19.3-4.4,40-23.7,46.2s-40-4.4-46.2-23.7s4.4-40,23.7-46.2
		C537,305.4,557.6,316.1,563.9,335.4z"/>
	<path d="M559.9,336.6c5.5,17.1-3.9,35.5-21,41s-35.5-3.9-41-21s3.9-35.5,21-41C536.1,310.1,554.4,319.5,559.9,336.6z"/>
	<ellipse class="st3" cx="532.4" cy="326.2" rx="6.5" ry="6.5"/>
	<path class="st11" d="M461.5,420.6c0,0-40.5,47.9-52-15.1l19.8,13.4l14,2.8L461.5,420.6z"/>
	<path class="st12" d="M409.5,405.5l9.8,1.6c1.5,0.3,3,1,4,2.1c2.9,3,9.7,8.8,19.1,7.6c1.8-0.2,3.6-0.1,5.3,0.6
		c2.8,1,7.6,2.5,13.8,3.2C461.5,420.6,429.8,439.1,409.5,405.5z"/>
	<path class="st3" d="M409.5,405.5"/>
	<path class="st13" d="M461.5,420.6c0,0,12.8-10.1,15.4-15.1s10.1-1.7,7.4,3.5C481.7,414.1,461.5,420.6,461.5,420.6z"/>
	<path class="st13" d="M409.5,405.5c0,0-7.3-10.2-4.3-19.6s4.3,5.4,4.3,5.4V405.5z"/>
	<path class="st13" d="M552.9,159.5c40.6,33.5,66.4,84.1,66.4,140.8c0,100.7-81.7,182.4-182.4,182.4c-8.3,0-16.5-0.6-24.6-1.7
		c31.5,26,71.9,41.6,116,41.6c100.7,0,182.4-81.7,182.4-182.4C710.7,247.8,642,171.5,552.9,159.5z"/>
	<path class="st1" d="M442.6,230.2c0,0,102.4-25.9,194,31.8c0,0,9.8-55.3,73.9-48.6S537.3,56,442.6,230.2z"/>
	<path class="st0" d="M442.6,230.2c0,0,238.1-137.5,0-111S314.2,96,314.2,96s-177.4,52,57.5,80.8
		C371.6,176.8,564.4,149.6,442.6,230.2z"/>
	<path class="st10" d="M442.6,230.2c0,0-36.1-23.5-72.1,18.5c0,0,51.4-79.3,1.1-71.8C371.6,176.8,691.7,71,442.6,230.2z"/>
	<path class="st3" d="M425.4,517.1c-2.8,1.3-5.5,2.8-8,4.3l-59.8-22.6c-8.6-5-19.6-23.8-27.6-6.4l0,0c-5.3,9.1,8,19.2,22.2,19.4
		l45.9,42.4c7.2,8.8,29,9.5,52.1,1.1c8.7-3.2,16.4-7.2,22.7-11.6c0.1-0.4,0.1-0.9,0.2-1.3C455.9,536.3,439.9,527.7,425.4,517.1z"/>
	<path class="st3" d="M474.2,542.7c-0.4,0.3-0.8,0.6-1.3,0.9c-2,12.4-3.1,25.7-3.1,39.7c0,62.9,22.3,113.9,49.8,113.9
		c27.5,0,49.8-51,49.8-113.9c0-11.8-0.8-23.2-2.2-33.8c-10.9,2-22.2,3.1-33.7,3.1C512.7,552.5,492.8,549.1,474.2,542.7z"/>
	<path class="st3" d="M473.2,542.3c-0.1,0.4-0.1,0.9-0.2,1.3c0.4-0.3,0.8-0.6,1.3-0.9C473.9,542.6,473.5,542.4,473.2,542.3z"/>
	<path class="st14" d="M541.3,152.9c18.1-25.8,4.8-45.5-99.2-33.9c-238.4,26.6-128.6-23.3-128.6-23.3s-177.7,52,57.6,80.8
		c50.3-7.5-1.1,71.8-1.1,71.8c36.1-42,72.2-18.5,72.2-18.5s102.6-25.9,194.4,31.8c0,0,9.8-55.3,74.1-48.6
		C757.5,218,643.3,131.8,541.3,152.9z"/>
</g>
</svg>
