<?xml version="1.0" encoding="utf-8"?>
<!-- Generator: Adobe Illustrator 27.9.0, SVG Export Plug-In . SVG Version: 6.00 Build 0)  -->
<svg version="1.1" xmlns="http://www.w3.org/2000/svg" xmlns:xlink="http://www.w3.org/1999/xlink" x="0px" y="0px"
	 viewBox="0 0 100 100" style="enable-background:new 0 0 100 100;" xml:space="preserve">
<style type="text/css">
	.st0{fill:#33CCFF;}
	.st1{fill:#FFFFFF;}
	.st2{fill:#FF9966;}
	.st3{fill:#FFCC66;}
	.st4{fill:#FFCC99;}
	.st5{opacity:0.2;fill:#FF00CC;enable-background:new    ;}
	.st6{fill:url(#SVGID_1_);}
	.st7{opacity:0.3;fill:#00FF00;enable-background:new    ;}
	.st8{fill:url(#SVGID_00000158740370374620868310000005529663816432389009_);}
	.st9{opacity:0.4;fill:#81A37B;enable-background:new    ;}
	.st10{fill:url(#SVGID_00000068643696419062295880000018166234566030201240_);}
	.st11{opacity:0.2;fill:#00FF00;enable-background:new    ;}
</style>
<g id="Layer_2">
	<rect x="-1" y="-1" class="st0" width="102" height="102"/>
</g>
<g id="Layer_3">
	<path class="st1" d="M21.9-1L101-1c0,0-6.5,9.2-40.6,8.9c0,0-4.7,30.5-31.1,14.5S-1,25.9-1,25.9L-1.4-1H21.9z"/>
</g>
<g id="Layer_1">
	<g>
		<path class="st2" d="M10.9,9.8c0,0-8.5,67.1,28.4,55.4C70.4,42.1,10.9,9.8,10.9,9.8z"/>
		<path class="st2" d="M20.5,55l-12-39.8c0,0-1.3,32.7,14,47.6C22.5,62.8,20.6,59.6,20.5,55z"/>
		<path class="st1" d="M30.3,42.5c0,0-15,7.1-7.8,20.2c4.4,4.2,11.1,5.4,16.8,2.4c5.2-2.6,8.1-7.9,8-13.4
			C41.7,40.8,30.3,42.5,30.3,42.5z"/>
		<path class="st3" d="M11,7.7L19.5,23c4.2,4.9,8.5,10.5,10.2,14.8c6.3-1.3,12.9,1.7,16,7.7c1.1,2.1,1.6,4.2,1.6,6.4
			C47.3,51.8,47.8,28.8,11,7.7z"/>
		<path class="st3" d="M29.7,37.8c0.8,1.9,1.1,3.6,0.6,4.8c0,0,11.4-1.7,17,9.3c0-2.2-0.6-4.3-1.6-6.4C42.6,39.5,36,36.5,29.7,37.8z
			"/>
		<path class="st4" d="M25.9,39.1c0.7-0.3,1.3-0.6,2-0.8L19.5,23c-5-5.9-9.9-10.7-9.9-10.7c-1.2,44.1,13,50.6,13,50.6
			c-1.2-1.1-2.1-2.4-2.9-3.9C15.9,51.6,18.7,42.8,25.9,39.1z"/>
		<path class="st4" d="M30.3,42.5l-2.4-4.3c-0.7,0.2-1.3,0.5-2,0.8c-7.2,3.7-10.1,12.5-6.4,19.8c0.8,1.5,1.8,2.8,2.9,3.9
			C15.2,49.6,30.3,42.5,30.3,42.5z"/>
		<path class="st4" d="M29.7,37.8c-1.8-4.3-6.1-9.9-10.2-14.8l8.5,15.3C28.5,38.1,29.1,37.9,29.7,37.8z"/>
		<path class="st4" d="M30.3,42.5c0.5-1.2,0.2-2.8-0.6-4.8c-0.6,0.1-1.2,0.3-1.8,0.5L30.3,42.5z"/>
		<g>
			<ellipse transform="matrix(0.4727 -0.8812 0.8812 0.4727 -32.7037 53.7294)" cx="28.5" cy="54.2" rx="0.9" ry="1.6"/>
			<circle class="st1" cx="28.3" cy="53.8" r="0.5"/>
		</g>
		<g>
			<ellipse transform="matrix(0.4727 -0.8812 0.8812 0.4727 -40.0265 55.0475)" cx="26" cy="61" rx="0.9" ry="1.6"/>
			<circle class="st1" cx="25.7" cy="60.5" r="0.5"/>
		</g>
		<ellipse transform="matrix(0.4727 -0.8812 0.8812 0.4727 -36.3169 60.9158)" cx="32.7" cy="60.8" rx="1.2" ry="0.8"/>
		<path class="st5" d="M38.3,30.5c-5.3-7-13.8-15-27.2-22.7l1.7,3.2C11.7,10.3,11,9.9,11,9.9s-0.2,1.3-0.3,3.4
			c-0.7-0.7-1.1-1.1-1.1-1.1c-0.1,2.1-0.1,4.1-0.1,6.1l-1-3.2c0,0-0.5,11.8,2.5,24.5c1.9,14.1,7.3,27.8,21.5,27
			c-3.6-0.1-7.1-1.5-9.7-4.1c-7.2-13.1,7.8-20.2,7.8-20.2s11.4-1.7,17,9.3c0,1.9-0.3,3.8-1,5.6C51.2,48.3,46.1,38.7,38.3,30.5z"/>
	</g>
	<g>
		
			<linearGradient id="SVGID_1_" gradientUnits="userSpaceOnUse" x1="49.495" y1="68.3024" x2="78.5268" y2="68.3024" gradientTransform="matrix(0.9029 0.4299 0.4299 -0.9029 -16.8791 75.5321)">
			<stop  offset="0" style="stop-color:#6F9278"/>
			<stop  offset="3.072398e-03" style="stop-color:#6F9278"/>
			<stop  offset="0.3691" style="stop-color:#91B991"/>
			<stop  offset="0.5605" style="stop-color:#9EC89B"/>
			<stop  offset="0.6759" style="stop-color:#97BF95"/>
			<stop  offset="0.8605" style="stop-color:#82A886"/>
			<stop  offset="1" style="stop-color:#6F9278"/>
		</linearGradient>
		<path class="st6" d="M76.4,62.3c0,0-21,6.2-23.6-11.2c-2.6-17.4,20.1-23.6,20.1-23.6s6.4-1.4,8-6.3c0,0,7.5,9.3,2.1,20.4
			C77.7,52.7,76.4,62.3,76.4,62.3z"/>
		<path class="st7" d="M76.5,62.2c0,0-21,6.2-23.6-11.2S73,27.3,73,27.3s6.4-1.4,8-6.3c0,0,7.5,9.3,2.1,20.4
			C77.8,52.6,76.5,62.2,76.5,62.2z"/>
		<circle class="st1" cx="72.5" cy="42.2" r="10.7"/>
		
			<linearGradient id="SVGID_00000132781172579759064560000014347913254050392750_" gradientUnits="userSpaceOnUse" x1="53.3931" y1="65.9383" x2="86.8611" y2="65.9383" gradientTransform="matrix(0.9029 0.4299 0.4299 -0.9029 -16.8791 75.5321)">
			<stop  offset="0" style="stop-color:#6F9278"/>
			<stop  offset="0.5621" style="stop-color:#99FF99"/>
			<stop  offset="0.724" style="stop-color:#98FD98"/>
			<stop  offset="0.7987" style="stop-color:#95F596"/>
			<stop  offset="0.8554" style="stop-color:#90E992"/>
			<stop  offset="0.9032" style="stop-color:#89D68D"/>
			<stop  offset="0.9452" style="stop-color:#80BF86"/>
			<stop  offset="0.9826" style="stop-color:#75A27D"/>
			<stop  offset="1" style="stop-color:#6F9278"/>
		</linearGradient>
		<path style="fill:url(#SVGID_00000132781172579759064560000014347913254050392750_);" d="M54.2,50.4c1.7-3.6,5.3-5.7,9.3-6.1
			c5.6-1.1,19.3-4.4,22.3-10.3c4.3-8.2-1.4-9.9-1.4-9.9s3.6,0,6.1,7.2c0.3,0.8,0.6,1.7,0.8,2.6c3.6,12.8-1.8,25.5-13.6,31.5
			c-3.2,1.6-6.8,2.7-10.5,2.3c-2,0-4.1-0.5-6.2-1.4c-0.1-0.1-0.3-0.1-0.4-0.2c-2.9-1.3-3.9-2.9-3.9-2.9l0,0
			C53.4,59.7,52.2,54.7,54.2,50.4z"/>
		<path class="st9" d="M91.1,36.9c0,0-0.2,22.4-19.7,29.4l-2.1,1C69.3,67.3,91.3,63.5,91.1,36.9z"/>
		<path class="st9" d="M76.2,44c0,0,7.2,1.1-0.8,20.9l1.7-1C77.1,63.9,83.6,45.7,76.2,44z"/>
		
			<linearGradient id="SVGID_00000063616999421836871580000009222393143916131768_" gradientUnits="userSpaceOnUse" x1="46.3006" y1="60.76" x2="75.4925" y2="68.582" gradientTransform="matrix(0.9029 0.4299 0.4299 -0.9029 -16.8791 75.5321)">
			<stop  offset="0" style="stop-color:#6F9278"/>
			<stop  offset="2.231992e-02" style="stop-color:#78A97F"/>
			<stop  offset="5.505095e-02" style="stop-color:#82C487"/>
			<stop  offset="9.265747e-02" style="stop-color:#8BDA8E"/>
			<stop  offset="0.1366" style="stop-color:#91EB93"/>
			<stop  offset="0.1909" style="stop-color:#96F696"/>
			<stop  offset="0.2671" style="stop-color:#98FD98"/>
			<stop  offset="0.4788" style="stop-color:#99FF99"/>
			<stop  offset="0.6103" style="stop-color:#9AF799"/>
			<stop  offset="0.8109" style="stop-color:#9CE29A"/>
			<stop  offset="1" style="stop-color:#9EC89B"/>
		</linearGradient>
		<path style="fill:url(#SVGID_00000063616999421836871580000009222393143916131768_);" d="M77.5,61.7c1.7-3.6,1.1-7.7-1.1-11.1
			c-2.7-5-8.7-17.7-6.1-23.8c3.7-8.5,8.6-5.1,8.6-5.1s-2.3-2.8-9.5-0.2c-0.8,0.3-1.7,0.6-2.5,1C54.6,27.8,48.1,40,51,52.9
			c0.8,3.5,2.2,7,4.8,9.7c1.3,1.6,3,2.9,5,3.9c0.1,0.1,0.3,0.1,0.4,0.2c2.8,1.4,4.6,1.2,4.6,1.2l0,0C70.8,68.2,75.5,66,77.5,61.7z"
			/>
		<g>
			<ellipse transform="matrix(0.4299 -0.9029 0.9029 0.4299 10.8504 91.2543)" cx="77.7" cy="37" rx="1.1" ry="0.6"/>
			<circle class="st1" cx="78" cy="36.8" r="0.3"/>
		</g>
		<g>
			<ellipse transform="matrix(0.4299 -0.9029 0.9029 0.4299 10.2413 86.1496)" cx="73.3" cy="35" rx="1.1" ry="0.6"/>
			<circle class="st1" cx="73.6" cy="34.7" r="0.3"/>
		</g>
		<path class="st9" d="M56.8,61.8c-3.9-4.7-5.3-13.4-1.3-27.4c0,0-8.6,20.3,1.2,29.2c0,0,6.2,6.8,14.3,3.6l-2.4,0.2
			C64.6,67,59.3,64.8,56.8,61.8z"/>
		<path class="st9" d="M53.2,52.1c0,0,3.6-18.1,13.9-18.1c0,0-11,0.3-13.5,20.8L53.2,52.1z"/>
		<path class="st9" d="M56.1,60.9c0,0,6.7-22.6,12-18.4c0,0-4.7-3.2-11.6,18.9L56.1,60.9z"/>
		<path class="st9" d="M61.2,65.1c0,0,4.9-15,12.1-12.2c0,0-6.4-2.8-10.9,12.8L61.2,65.1L61.2,65.1z"/>
		<path class="st9" d="M82.2,59.3c0,0,7.3-13.6,0.8-18.5c0,0,6.9,3.7,0,17.7L82.2,59.3z"/>
		<path class="st11" d="M91.4,33.9c-0.3-0.9-0.5-1.8-0.8-2.6c-2.5-7.2-6.1-7.2-6.1-7.2s5.7,1.7,1.4,9.9c-1.9,3.6-7.8,6.3-13.4,8
			c-2.1-5.4-3.7-11.5-2.1-15.3c3.7-8.5,8.6-5.1,8.6-5.1s-2.3-2.8-9.5-0.2c-0.8,0.3-1.7,0.6-2.5,1C54.7,27.7,48.2,39.9,51,52.8
			c0.8,3.5,2.2,7,4.8,9.7c1.3,1.6,3,2.9,5,3.9c0.1,0.1,0.3,0.1,0.4,0.2c2.8,1.4,4.6,1.2,4.6,1.2l0,0c0.7,0.1,1.3,0.1,1.9,0
			c3.5,0.2,6.9-0.8,9.9-2.4C89.6,59.5,95,46.7,91.4,33.9z"/>
	</g>
</g>
</svg>
